<svg width="842" height="595" viewBox="0 0 842 595" fill="none" xmlns="http://www.w3.org/2000/svg">
<g clip-path="url(#clip0_0_3)">
<rect width="842" height="595" fill="white"/>
<path d="M555.615 468.568C735.195 443.655 791.21 535.605 829.42 587.049C867.944 595.056 947.761 613.191 958.83 621.669C972.665 632.267 707.892 691.529 697.626 692.954C689.414 694.093 108.914 762.107 -180.309 795.972L-873.892 863.402L-968.959 178.126C-918.203 102.239 -803.992 145.226 -685.905 233.989C-538.295 344.943 -468.132 336.461 -200.292 299.304C114.594 255.621 74.9959 535.243 555.615 468.568Z" fill="#DBE0E9"/>
<path d="M-82.4525 618.489C-222.966 618.489 -256.175 686.108 -280.029 724.586C-308.75 733.639 -368.093 753.444 -375.687 760.234C-385.18 768.722 -175.607 784 -167.575 784C-161.149 784 291.732 775.512 517.369 771.268L1057 751.746V278.13C1009.95 231.447 926.854 271.339 845.654 342.637C744.154 431.758 689.388 432.607 479.815 432.607C233.432 432.607 293.61 618.489 -82.4525 618.489Z" fill="#F5F6F8"/>
<path d="M128 122.614L-9.25 240.058L-9.25 5.16879L128 122.614Z" fill="#0A3070"/>
<path d="M153 209.5L-41.25 371.014L-41.25 47.9863L153 209.5Z" fill="#19234A"/>
<path d="M717 473.042L854.25 353.568V592.517L717 473.042Z" fill="#0A3070"/>
<path d="M692 384L886.25 216.857V551.143L692 384Z" fill="#19234A"/>
<rect x="-21" y="579" width="884" height="16" fill="#05347E"/>
<rect x="-21" width="884" height="16" fill="#05347E"/>
</g>
<defs>
<clipPath id="clip0_0_3">
<rect width="842" height="595" fill="white"/>
</clipPath>
</defs>
</svg>
