<svg xmlns="http://www.w3.org/2000/svg" viewBox="0 0 473.22 427.48"><title>Asset 3</title><g id="Layer_2" data-name="Layer 2"><g id="Layer_1-2" data-name="Layer 1"><path d="M450.13,78.12,356.72,372a25.2,25.2,0,0,1-24,17.56H69a45.37,45.37,0,0,1-34.75-16A12.45,12.45,0,0,1,43.68,353H292.32a40.17,40.17,0,0,0,38.28-28L412.49,67.4l4-12.55A42,42,0,0,0,376.38,0H159.87a56.32,56.32,0,0,0-53.69,39.27L78,128,5.34,318.64c-20,52.54,18.78,108.84,75,108.84H318.64a67.41,67.41,0,0,0,64.19-46.86l82.34-257.27C471.7,106.2,464.69,88.85,450.13,78.12ZM161.05,95.91,172.79,72a6.68,6.68,0,0,1,6-3.74H346.92a6.68,6.68,0,0,1,6,9.63l-11.74,23.89a6.69,6.69,0,0,1-6,3.73H167.05A6.68,6.68,0,0,1,161.05,95.91Zm-24.69,70.67,11.54-23.49a6.88,6.88,0,0,1,6.18-3.85H321.77a6.88,6.88,0,0,1,6.17,9.92L316.4,172.65a6.88,6.88,0,0,1-6.17,3.84H142.54A6.88,6.88,0,0,1,136.36,166.58ZM473.22,49.06h-8.78V16a30.34,30.34,0,0,1-11.34,6.66v-8a25.18,25.18,0,0,0,7.46-4.27,16.15,16.15,0,0,0,5.54-7.33h7.12Z"/></g></g></svg>