<svg xmlns="http://www.w3.org/2000/svg" viewBox="0 0 480.41 427.48"><title>Asset 2</title><g id="Layer_2" data-name="Layer 2"><g id="Layer_1-2" data-name="Layer 1"><path d="M450.13,78.12,356.72,372a25.2,25.2,0,0,1-24,17.56H69a45.37,45.37,0,0,1-34.75-16A12.45,12.45,0,0,1,43.68,353H292.32a40.17,40.17,0,0,0,38.28-28L412.49,67.4l4-12.55A42,42,0,0,0,376.38,0H159.87a56.32,56.32,0,0,0-53.69,39.27L78,128,5.34,318.64c-20,52.54,18.78,108.84,75,108.84H318.64a67.41,67.41,0,0,0,64.19-46.86l82.34-257.27C471.7,106.2,464.69,88.85,450.13,78.12ZM161.05,95.91,172.79,72a6.68,6.68,0,0,1,6-3.74H346.92a6.68,6.68,0,0,1,6,9.63l-11.74,23.89a6.69,6.69,0,0,1-6,3.73H167.05A6.68,6.68,0,0,1,161.05,95.91Zm-24.69,70.67,11.54-23.49a6.88,6.88,0,0,1,6.18-3.85H321.77a6.88,6.88,0,0,1,6.17,9.92L316.4,172.65a6.88,6.88,0,0,1-6.17,3.84H142.54A6.88,6.88,0,0,1,136.36,166.58ZM480.41,40.91v8.15H449.63a21.09,21.09,0,0,1,3-8.76q2.49-4.14,9.87-11,5.94-5.52,7.28-7.5a9.64,9.64,0,0,0,1.82-5.37A6.14,6.14,0,0,0,470,11.92a6.74,6.74,0,0,0-8.74.08c-1.08,1.11-1.71,2.94-1.87,5.5l-8.75-.87c.52-4.84,2.15-8.3,4.9-10.41a16.51,16.51,0,0,1,10.32-3.16q6.78,0,10.65,3.66a12,12,0,0,1,3.88,9.09,15.86,15.86,0,0,1-1.11,5.9,23.83,23.83,0,0,1-3.52,5.85A55.25,55.25,0,0,1,470,33.41q-4.15,3.81-5.26,5.06a15.2,15.2,0,0,0-1.8,2.44Z"/></g></g></svg>